<?xml version="1.0" encoding="UTF-8" standalone="no"?>
<svg
   viewBox="0 0 1280 640"
   version="1.1"
   id="svg1"
   sodipodi:docname="open-graph.svg"
   xml:space="preserve"
   inkscape:version="1.4.4 (dcaf3e7d9e, 2026-05-05)"
   inkscape:export-filename="logo-stroke.png"
   inkscape:export-xdpi="96"
   inkscape:export-ydpi="96"
   xmlns:inkscape="http://www.inkscape.org/namespaces/inkscape"
   xmlns:sodipodi="http://sodipodi.sourceforge.net/DTD/sodipodi-0.dtd"
   xmlns:xlink="http://www.w3.org/1999/xlink"
   xmlns="http://www.w3.org/2000/svg"
   xmlns:svg="http://www.w3.org/2000/svg"><defs
     id="defs1"><linearGradient
       id="swatch1"
       inkscape:swatch="solid"><stop
         style="stop-color:#ffffff;stop-opacity:1;"
         offset="0"
         id="stop1" /></linearGradient><linearGradient
       inkscape:collect="always"
       xlink:href="#swatch1"
       id="linearGradient1"
       x1="80"
       y1="320.01855"
       x2="508.00003"
       y2="320.01855"
       gradientUnits="userSpaceOnUse" /></defs><sodipodi:namedview
     id="namedview1"
     pagecolor="#ffffff"
     bordercolor="#000000"
     borderopacity="0.25"
     inkscape:showpageshadow="2"
     inkscape:pageopacity="0.0"
     inkscape:pagecheckerboard="0"
     inkscape:deskcolor="#d1d1d1"
     inkscape:zoom="1.2766592"
     inkscape:cx="554.96408"
     inkscape:cy="496.217"
     inkscape:window-width="2560"
     inkscape:window-height="1368"
     inkscape:window-x="0"
     inkscape:window-y="0"
     inkscape:window-maximized="1"
     inkscape:current-layer="svg1"
     inkscape:export-bgcolor="#ffffff00"><sodipodi:guide
       position="0,640"
       orientation="0,1280"
       id="guide1"
       inkscape:locked="false" /><sodipodi:guide
       position="1280,640"
       orientation="640,0"
       id="guide2"
       inkscape:locked="false" /><sodipodi:guide
       position="1280,0"
       orientation="0,-1280"
       id="guide3"
       inkscape:locked="false" /><sodipodi:guide
       position="0,0"
       orientation="-640,0"
       id="guide4"
       inkscape:locked="false" /><sodipodi:guide
       position="50.402423,560.24232"
       orientation="0,1280"
       id="guide5"
       inkscape:locked="false" /><sodipodi:guide
       position="1200.2423,580.45868"
       orientation="640,0"
       id="guide6"
       inkscape:locked="false" /><sodipodi:guide
       position="1203.4271,80.034616"
       orientation="0,-1280"
       id="guide7"
       inkscape:locked="false" /><sodipodi:guide
       position="79.847073,558.73321"
       orientation="-640,0"
       id="guide8"
       inkscape:locked="false" /></sodipodi:namedview><rect
     style="fill:#ffffff;fill-opacity:1;stroke:none;stroke-width:6.00521;stroke-linecap:square"
     id="rect1"
     width="1280"
     height="640"
     x="0"
     y="0"
     inkscape:label="debug-bg" /><path
     id="path2-9"
     style="stroke:url(#linearGradient1);stroke-width:6;stroke-linecap:square;stroke-linejoin:miter;stroke-dasharray:none;stroke-opacity:1"
     inkscape:label="base"
     d="m 294,80 -170.41993,98.86914 v 3.90234 l 1.08398,9.94922 c 1.39955,15.4778 3.76397,37.27996 5.84376,55.74805 -6.54714,0.0445 -18.06864,1.97362 -25.14062,3.90234 0.0616,0.35598 0.12412,0.71236 0.18554,1.06836 l -0.83593,-0.41797 C 94.74314,260.82695 86.50456,269.49904 80,279.03906 c 3.25228,25.36778 3.90202,52.03659 7.1543,76.75391 7.12825,8.42431 30.39812,27.17787 37.0039,31.82031 0.0246,0.23404 0.0477,0.46907 0.0723,0.70313 l 20.81444,-1.30079 7.15625,59.8418 c 27.92036,20.77794 126.49011,101.1876 141.71875,113.11719 0.0269,0.021 0.0537,0.0419 0.0801,0.0625 0.006,-0.005 0.0119,-0.0108 0.0176,-0.0156 55.2808,-46.82481 99.50596,-78.04304 140.48046,-111.21289 3.16643,-8.86601 7.56682,-49.79297 7.79687,-60.35156 0.33646,-0.40284 0.55908,-0.66972 0.66017,-0.79101 0.0275,-0.18959 0.0548,-0.37824 0.082,-0.56641 l 20.08203,1.2168 1.95117,-0.65039 31.22071,-25.36719 c 4.55319,-23.41641 6.50534,-55.94089 11.70898,-80.65821 -3.68417,-4.2982 -21.85941,-24.82496 -26.07227,-28.20507 0.018,-0.13771 0.0367,-0.27608 0.0547,-0.41407 -7.67156,-4.47508 -17.22823,-3.92417 -25.58202,-4.52148 3.1535,-29.98086 7.20715,-68.46918 7.35937,-69.62305 0.003,-0.002 0.005,-0.006 0.008,-0.008 h 0.002 c 7.9e-4,-6.4e-4 10e-4,-0.003 0.002,-0.004 -9.9e-4,-1.6e-4 -0.005,2.9e-4 -0.008,0 h -0.002 l -5.19728,-3.24804 C 404.57661,144.39531 349.28876,107.9696 294,80 Z M 135.40819,288.66406 c 0.0305,0.0555 0.0607,0.11132 0.0918,0.16797 0.0258,0.4602 0.0521,0.91562 0.0781,1.36719 -0.0566,-0.5119 -0.11311,-1.02321 -0.16992,-1.53516 z" /><g
     id="g1"
     transform="matrix(0.65045593,0,0,0.65045593,22.759876,-79.361704)"
     style="stroke:none;stroke-width:7.68918;stroke-linecap:square;stroke-linejoin:miter;stroke-dasharray:none;stroke-opacity:1"><path
       fill="#4c2da5"
       d="m 664,556 c -9,85 -8,93 -18,162 -5,6 -203,243 -229,265 -26,-20 -247,-423 -247,-423 17.5,-24 21.18064,-63.58103 74.89797,-97.29442 53.71733,-33.71339 96.66017,-47.77055 170.41069,-79.76624 46.00683,0.65685 69.51293,1.07107 111.27713,0.47487"
       id="path2"
       sodipodi:nodetypes="ccccscc"
       inkscape:label="base"
       style="stroke:none;stroke-width:7.68918;stroke-linecap:square;stroke-linejoin:miter;stroke-dasharray:none;stroke-opacity:1" /><path
       fill="#5732b2"
       d="m 417,245 1,1 V 639 L 246,465 c -59,72 55,-70 -73,94 h -1 L 155,403 v -6"
       id="path4"
       style="display:inline;stroke:none;stroke-width:7.68918;stroke-linecap:square;stroke-linejoin:miter;stroke-dasharray:none;stroke-opacity:1"
       inkscape:label="upper-left-base" /><path
       fill="#301f79"
       d="m 417,245 c 85,43 170,99 253,147 l 8,5 C 588.43824,468.24101 586.69537,469.59752 418,639 453,556 475.03806,499.48023 526,385 489.71573,338.98781 465.30509,307.96194 417,246"
       id="path6"
       sodipodi:nodetypes="cccccc"
       style="display:inline;stroke:none;stroke-width:7.68918;stroke-linecap:square;stroke-linejoin:miter;stroke-dasharray:none;stroke-opacity:1"
       inkscape:label="upper-right-base" /><path
       fill="#663dc2"
       d="m 173,560 c 2,1 168,51 245,80 l -1,343 C 412,976 225,828 188,717 180,631 176,618 173,560"
       id="path3"
       style="display:inline;stroke:none;stroke-width:7.68918;stroke-linecap:square;stroke-linejoin:miter;stroke-dasharray:none;stroke-opacity:1"
       inkscape:label="left-face" /><path
       fill="#432896"
       d="m 660,560 c -23,8 -181,57 -242,79 3,-6 156,-157 171,-172 22,23 56,72 71,93"
       id="path5"
       style="display:inline;stroke:none;stroke-width:7.68918;stroke-linecap:square;stroke-linejoin:miter;stroke-dasharray:none;stroke-opacity:1"
       inkscape:label="right-temple" /><path
       fill="#312079"
       d="m 188,717 c 17,17 229,265 229,265 v 1 c 77,-96 228,-265 228,-265 0,14 -7,80 -12,94 C 570,863 502,911 417,983 394,965 242,841 199,809 Z"
       id="path7"
       style="display:inline;stroke:none;stroke-width:7.68918;stroke-linecap:square;stroke-linejoin:miter;stroke-dasharray:none;stroke-opacity:1"
       inkscape:label="jaw-shadow" /><path
       fill="#2e1e77"
       d="m 308,385 c 46,108 66,155 110,254 v 1 Q 320,544 245,465 Z"
       id="path8"
       style="display:inline;stroke:none;stroke-width:7.68918;stroke-linecap:square;stroke-linejoin:miter;stroke-dasharray:none;stroke-opacity:1"
       inkscape:label="upper-left-shadow2" /><path
       fill="#392285"
       d="m 417,245 c -34,46 -75,93 -109,140 l -152,12 z"
       id="path9"
       inkscape:label="upper-left-shadow1"
       style="stroke:none;stroke-width:7.68918;stroke-linecap:square;stroke-linejoin:miter;stroke-dasharray:none;stroke-opacity:1" /><path
       fill="#5834af"
       d="m 705,511 c 4,2 35,37 41,44 -8,38 -11,88 -18,124 l -48,39 -3,1 c 12,-67 27,-202 28,-208"
       id="path10"
       style="display:inline;stroke:none;stroke-width:7.68918;stroke-linecap:square;stroke-linejoin:miter;stroke-dasharray:none;stroke-opacity:1"
       inkscape:label="right-ear-base" /><path
       fill="#673fbf"
       d="m 126,511 2,1 c 10,69 25,137 28,206 -10,-7 -46,-36 -57,-49 -5,-38 -6,-79 -11,-118 q 15,-22 38,-40"
       id="path11"
       inkscape:label="left-ear-base"
       style="stroke:none;stroke-width:7.68918;stroke-linecap:square;stroke-linejoin:miter;stroke-dasharray:none;stroke-opacity:1" /><path
       fill="#764ecc"
       d="m 417,245 v 137 l -1,3 H 308 C 321,363 408,260 417,245"
       id="path12"
       inkscape:label="upper-left-mid-highlight"
       style="stroke:none;stroke-width:7.68918;stroke-linecap:square;stroke-linejoin:miter;stroke-dasharray:none;stroke-opacity:1" /><path
       fill="#5f37b9"
       d="m 417,245 c 6,6 99,124 109,140 H 416 Z"
       id="path13"
       inkscape:label="upper-right-mid-highlight"
       style="stroke:none;stroke-width:7.68918;stroke-linecap:square;stroke-linejoin:miter;stroke-dasharray:none;stroke-opacity:1" /><path
       fill="#34207f"
       d="m 166,504 q 13,107 22,213 l -32,2 Q 145,614 127,510 c 11,-3 29,-6 39,-6"
       id="path14"
       inkscape:label="left-ear-connector"
       style="stroke:none;stroke-width:7.68918;stroke-linecap:square;stroke-linejoin:miter;stroke-dasharray:none;stroke-opacity:1" /><path
       fill="#321f7c"
       d="m 666,504 c 13,1 28,0 40,7 -23,176 -27,204 -29,208 l -33,-2 z"
       id="path15"
       inkscape:label="right-ear-connector"
       style="stroke:none;stroke-width:7.68918;stroke-linecap:square;stroke-linejoin:miter;stroke-dasharray:none;stroke-opacity:1" /><path
       fill="#774fcc"
       d="m 155,397 90,68 -73,94 c 0,0 -15,-126 -17,-162"
       id="path16"
       inkscape:label="upper-left-highlight"
       style="stroke:none;stroke-width:7.68918;stroke-linecap:square;stroke-linejoin:miter;stroke-dasharray:none;stroke-opacity:1" /><path
       fill="#754eca"
       d="M 677.98828,396.99609 C 677.66406,399.33203 661,558 661,558 l -72,-91 c 0,0 86.57031,-68.62109 88.98828,-70.00391 z"
       id="path17"
       sodipodi:nodetypes="cccc"
       inkscape:label="upper-right-highlight"
       style="stroke:none;stroke-width:7.68918;stroke-linecap:square;stroke-linejoin:miter;stroke-dasharray:none;stroke-opacity:1" /><path
       fill="#d3b1fd"
       d="m 237,651 c 52,8 115,25 115,25 l 19,45 H 271 c -10,-24 -25,-46 -34,-70 m 359,0 q -15,36 -34,70 h -99 q 8,-24 21,-47 c 37,-7 74,-18 112,-23"
       id="path18"
       inkscape:label="eyes"
       style="stroke:none;stroke-width:7.68918;stroke-linecap:square;stroke-linejoin:miter;stroke-dasharray:none;stroke-opacity:1" /><path
       fill="#502ea9"
       d="m 525.96875,384.87891 c 46,3 151.34615,12.03749 152.03365,12.11562 -42.875,35.1875 -44.65865,36.75938 -89.03365,69.88438 z"
       id="path19"
       sodipodi:nodetypes="cccc"
       inkscape:label="upper-right"
       style="stroke:none;stroke-width:7.68918;stroke-linecap:square;stroke-linejoin:miter;stroke-dasharray:none;stroke-opacity:1" /><path
       fill="#d1affd"
       d="m 353,800 h 128 q -11,19 -25,37 c -8,0 -60,3 -80,1 z"
       id="path20"
       inkscape:label="mouth"
       style="stroke:none;stroke-width:7.68918;stroke-linecap:square;stroke-linejoin:miter;stroke-dasharray:none;stroke-opacity:1" /><path
       fill="#b48ef6"
       d="m 697,562 37,17 c -5,25 -7,50 -15,74 l -36,10 z"
       id="path21"
       inkscape:label="right-ear-highlight"
       style="stroke:none;stroke-width:7.68918;stroke-linecap:square;stroke-linejoin:miter;stroke-dasharray:none;stroke-opacity:1" /><path
       fill="#b691f8"
       d="m 136,562 c 4,33 13,66 14,100 l -37,-10 q -9,-36 -14,-73 z"
       id="path22"
       inkscape:label="left-ear-highlight"
       style="stroke:none;stroke-width:7.68918;stroke-linecap:square;stroke-linejoin:miter;stroke-dasharray:none;stroke-opacity:1" /></g><text
     xml:space="preserve"
     style="font-size:133.333px;writing-mode:lr-tb;direction:ltr;display:inline;fill:none;fill-opacity:1;stroke:#ffffff;stroke-width:6;stroke-dasharray:none;stroke-opacity:1;stroke-linecap:square;stroke-linejoin:miter"
     x="531.86658"
     y="376.3331"
     id="text1-2"><tspan
       sodipodi:role="line"
       id="tspan1-7"
       x="0"
       y="0"
       style="font-size:133.333px;fill:none;fill-opacity:1;stroke:#ffffff;stroke-width:6;stroke-dasharray:none;stroke-opacity:1;stroke-linecap:square;stroke-linejoin:miter">Godot-Roc</tspan></text><text
     xml:space="preserve"
     style="font-size:133.333px;writing-mode:lr-tb;direction:ltr;display:inline;fill:#392285;fill-opacity:1;stroke:none;stroke-width:3.78;stroke-dasharray:none;stroke-opacity:1"
     x="531.86658"
     y="376.3331"
     id="text1"><tspan
       sodipodi:role="line"
       id="tspan1"
       x="0"
       y="0"
       style="font-size:133.333px;fill:#392285;fill-opacity:1;stroke:none;stroke-width:3.78;stroke-dasharray:none;stroke-opacity:1">Godot-Roc</tspan></text></svg>
